<?xml version="1.0" encoding="UTF-8"?>
<!DOCTYPE svg  PUBLIC '-//W3C//DTD SVG 1.1//EN'  'http://www.w3.org/Graphics/SVG/1.1/DTD/svg11.dtd'>
<svg enable-background="new 0 0 54.45 52.7" version="1.1" viewBox="0 0 54.45 52.7" xml:space="preserve" xmlns="http://www.w3.org/2000/svg" xmlns:xlink="http://www.w3.org/1999/xlink">
<symbol id="g" viewBox="0.3 -6.457 36.853 6.495">
		<path d="m36.15-5.55c1.9-1.034 1.1-1.184-2.4-0.45-4.967 1.133-8.483 1.9-10.55 2.3-11.3 2.2-18.933 3.35-22.9 3.45 1.4 0.4 4.117 0.383 8.15-0.05 4.1-0.434 9.216-1.217 15.35-2.35 6.933-1.233 11.05-2.2 12.35-2.9z" clip-rule="evenodd" fill="#fff" fill-rule="evenodd"/>
</symbol>
<symbol id="h" viewBox="-0.008 -14.96 49.408 14.96">
		<path d="m49.4-11.2c-0.633-3.167-4.55-4.333-11.75-3.5-9.167 1.733-15.833 2.983-20 3.75-5.967 1.067-10.317 2.217-13.05 3.45-3.2 1.4-4.733 3.083-4.6 5.05 0.1 1.067 0.75 1.883 1.95 2.45-1-1.9 0.2-3.683 3.6-5.35 2.167-1.033 7.133-2.333 14.9-3.9 5.566-1.1 11.45-2.133 17.65-3.1 2.967-0.467 5.45-0.566 7.45-0.3 1.833 0.233 3.117 0.717 3.85 1.45z" clip-rule="evenodd" fill-rule="evenodd"/>
</symbol>
<symbol id="i" viewBox="-0.008 -14.707 49.258 14.707">
		<path d="m49.25-11.5c-0.967-2.8-4.983-3.767-12.05-2.9-8.967 1.733-15.483 2.967-19.55 3.7-5.967 1.067-10.317 2.217-13.05 3.45-3.2 1.4-4.733 3.083-4.6 5.05 0.067 0.933 0.567 1.667 1.5 2.2-0.433-0.4-0.733-0.933-0.9-1.6-0.167-0.767-0.083-1.417 0.25-1.95 1.066-1.667 4.083-3.167 9.05-4.5 2.533-0.667 9.15-2.034 19.85-4.1 5.967-1.133 9.85-1.733 11.65-1.8 3.5-0.133 6.117 0.683 7.85 2.45z" clip-rule="evenodd" fill-rule="evenodd"/>
</symbol>
<symbol id="j" viewBox="-0.006 -13.15 45.656 13.15">
		<path d="m42.4-7.05c-4.2 1.2-9.1 2.333-14.7 3.4-7 1.367-13.75 2.25-20.25 2.65-3.167 0.167-4.333-0.483-3.5-1.95 0.466-0.767 3.216-1.5 8.25-2.2 2.867-0.434 7.316-1.017 13.35-1.75 3.133-0.5 7.083-1.267 11.85-2.3 4.2-0.9 6.95-1.417 8.25-1.55-2.233 0.133-4.35 0.4-6.35 0.8-6.533 1.333-12.1 2.283-16.7 2.85-8.133 0.967-13.167 1.733-15.1 2.3-1.4 0.4-2.383 0.5-2.95 0.3-0.367-0.133-0.717-0.533-1.05-1.2-0.4-0.733 1.533-1.467 5.8-2.2 9.167-1.567 16.3-2.75 21.4-3.55 5.833-0.933 10.117-1.5 12.85-1.7-1.8 0-3.783 0.117-5.95 0.35-3.067 0.367-7.517 1.05-13.35 2.05-2.533 0.433-6.167 1-10.9 1.7-3.833 0.533-6.417 0.95-7.75 1.25-1.233 0.267-2 0.4-2.3 0.4-2.3 1.267-3.4 2.733-3.3 4.4 0.1 1.4 1.25 2.4 3.45 3 0.9-0.233 3.417-0.517 7.55-0.85 4.467-0.333 8.017-0.767 10.65-1.3 7.367-1.467 13.967-2.967 19.8-4.5l0.95-0.4z" clip-rule="evenodd" fill="#164A0E" fill-rule="evenodd"/>
</symbol>
		<linearGradient id="f" x1="-12.534" x2="-2.0074" y1="25.232" y2="25.232" gradientTransform="matrix(.057 -.798 .798 .057 7.3998 39.799)" gradientUnits="userSpaceOnUse">
		<stop stop-color="#3A7524" offset="0"/>
		<stop stop-color="#3D7624" offset=".3725"/>
		<stop stop-color="#457A23" offset=".6039"/>
		<stop stop-color="#548021" offset=".7961"/>
		<stop stop-color="#68881F" offset=".9686"/>
		<stop stop-color="#6D8A1E" offset="1"/>
	</linearGradient>
	<path d="m46.959 48.039c0.48 3.547-2.267 5.067-8.239 4.561-2.054-0.16-4.881-0.613-8.48-1.36-4-0.853-6.906-1.439-8.72-1.76-4.773-0.854-8.253-1.773-10.439-2.76-2.56-1.12-3.787-2.467-3.68-4.04 0.133-1.946 2.733-2.906 7.8-2.88 2.854 0.026 7.64 0.48 14.36 1.36 6.16 0.826 10.439 1.68 12.84 2.56 2.798 1.013 4.319 2.453 4.558 4.319z" clip-rule="evenodd" fill="url(#f)" fill-rule="evenodd"/>
		<use transform="matrix(.8 0 0 -.8 7.3999 40.25)" x="-0.006" y="-13.15" width="45.656" height="13.15" enable-background="new" opacity=".2813" xlink:href="#j"/>
	<path d="m37.279 45.84c-0.319 0.24-0.627 0.267-0.92 0.08-0.187-0.106-0.267-0.267-0.239-0.48l0.119-0.239 0.28 0.359c0.214 0.24 0.467 0.334 0.76 0.28z" clip-rule="evenodd" fill="#336315" fill-rule="evenodd"/>
	<path d="m31.479 44.8c-0.054 0.213-0.173 0.373-0.359 0.48-0.134 0.08-0.28 0.106-0.44 0.08-0.214-0.054-0.373-0.16-0.48-0.32-0.079-0.16-0.079-0.32 0-0.48l0.16-0.24v0.2c0.027 0.16 0.12 0.294 0.28 0.4 0.266 0.186 0.547 0.146 0.839-0.12z" clip-rule="evenodd" fill="#336315" fill-rule="evenodd"/>
	<path d="m24.18 43.1c-0.196 0.282-0.402 0.369-0.62 0.261-0.16-0.054-0.24-0.174-0.24-0.36l0.04-0.28 0.04 0.16c0.08 0.106 0.2 0.187 0.36 0.24 0.184 0.066 0.323 0.06 0.42-0.021z" clip-rule="evenodd" fill="#336315" fill-rule="evenodd"/>
	<path d="m26.68 47.199l-0.04 0.16c-0.027 0.134 0.04 0.254 0.2 0.36l0.321 0.319c-0.161 0.08-0.374 0.014-0.641-0.199-0.187-0.16-0.213-0.307-0.08-0.44 0.053-0.08 0.133-0.146 0.24-0.2z" clip-rule="evenodd" fill="#336315" fill-rule="evenodd"/>
	<path d="m35.6 49.56c-0.267 0.187-0.521 0.187-0.761 0-0.16-0.106-0.213-0.214-0.16-0.32l0.16-0.159 0.281 0.359c0.187 0.16 0.346 0.2 0.48 0.12z" clip-rule="evenodd" fill="#336315" fill-rule="evenodd"/>
	<path d="m22.48 45.8c-0.24 0.399-0.507 0.52-0.8 0.36-0.187-0.106-0.267-0.228-0.24-0.36l0.121-0.16 0.32 0.32c0.159 0.106 0.359 0.053 0.599-0.16z" clip-rule="evenodd" fill="#336315" fill-rule="evenodd"/>
	<path d="m21.16 43c0 0.319-0.133 0.479-0.4 0.479-0.16 0-0.28-0.08-0.36-0.24l-0.04-0.239 0.04 0.08c0.053 0.053 0.16 0.106 0.32 0.159 0.24 0.054 0.386-0.026 0.44-0.239z" clip-rule="evenodd" fill="#336315" fill-rule="evenodd"/>
	<path d="m32.6 42.16c-0.187 0.106-0.373 0.106-0.561 0-0.105-0.054-0.16-0.106-0.16-0.16l0.081-0.08 0.279 0.16c0.187 0.08 0.308 0.107 0.361 0.08z" clip-rule="evenodd" fill="#336315" fill-rule="evenodd"/>
	<path d="m15.76 43.239c-0.187 0.294-0.4 0.374-0.64 0.24-0.16-0.106-0.227-0.213-0.2-0.319l0.08-0.16 0.28 0.28c0.133 0.107 0.293 0.093 0.48-0.041z" clip-rule="evenodd" fill="#336315" fill-rule="evenodd"/>
	<path d="m16.56 45.92c0 0.267-0.16 0.373-0.48 0.319-0.187-0.053-0.307-0.146-0.36-0.279v-0.2l0.04 0.12c0.053 0.08 0.173 0.133 0.36 0.16 0.267 0.053 0.413 0.014 0.44-0.12z" clip-rule="evenodd" fill="#336315" fill-rule="evenodd"/>
	<path d="m9.84 42.2c-0.107 0.293-0.267 0.359-0.48 0.199-0.106-0.106-0.133-0.213-0.08-0.319l0.12-0.12v0.12c0.026 0.106 0.067 0.173 0.12 0.2 0.106 0.08 0.213 0.053 0.32-0.08z" clip-rule="evenodd" fill="#336315" fill-rule="evenodd"/>
	<path d="m9.68 44.399c-2e-3 0.267-0.135 0.347-0.4 0.24-0.16-0.053-0.253-0.133-0.28-0.24l0.04-0.16 0.041 0.16c0.08 0.08 0.173 0.134 0.28 0.16 0.209 1e-3 0.315-0.052 0.319-0.16z" clip-rule="evenodd" fill="#336315" fill-rule="evenodd"/>
	<path d="m18.8 40.68c-0.08 0.294-0.2 0.427-0.36 0.4-0.106-0.026-0.213-0.106-0.32-0.24l-0.16-0.2 0.44 0.2c0.186 0.026 0.32-0.027 0.4-0.16z" clip-rule="evenodd" fill="#336315" fill-rule="evenodd"/>
	<path d="m11.82 45.479c-0.076 0.264-0.229 0.384-0.46 0.36-0.16-0.026-0.253-0.106-0.28-0.24v-0.2l0.08 0.12c0.08 0.08 0.2 0.106 0.359 0.08 0.15-0.016 0.25-0.056 0.301-0.12z" clip-rule="evenodd" fill="#336315" fill-rule="evenodd"/>
	<path d="m20.24 46.88c-0.064 0.185-0.184 0.265-0.36 0.239-0.134-0.026-0.227-0.093-0.28-0.199l-0.04-0.2 0.359 0.16c0.176 0.044 0.283 0.044 0.321 0z" clip-rule="evenodd" fill="#336315" fill-rule="evenodd"/>
	<path d="m31.52 50.479c-0.187 0.16-0.359 0.174-0.52 0.04-0.107-0.106-0.174-0.213-0.2-0.32l0.04-0.119 0.28 0.319c0.159 0.107 0.293 0.134 0.4 0.08z" clip-rule="evenodd" fill="#336315" fill-rule="evenodd"/>
	<path d="m36.319 42.96c0.027 0.24-0.12 0.347-0.44 0.32-0.187-0.027-0.306-0.134-0.359-0.32l-0.04-0.28 0.399 0.32c0.241 0.106 0.387 0.093 0.44-0.04z" clip-rule="evenodd" fill="#336315" fill-rule="evenodd"/>
	<path d="m42.56 44.72c-0.187 0.213-0.4 0.213-0.64 0-0.16-0.106-0.228-0.213-0.2-0.32l0.08-0.119 0.279 0.359c0.187 0.16 0.347 0.186 0.481 0.08z" clip-rule="evenodd" fill="#336315" fill-rule="evenodd"/>
	<path d="m37.64 51.96c-0.188 0.133-0.387 0.146-0.601 0.04-0.133-0.08-0.16-0.188-0.079-0.32 0.053-0.08 0.105-0.146 0.16-0.2l-0.041 0.12c-0.026 0.106-0.014 0.2 0.041 0.28 0.133 0.133 0.306 0.159 0.52 0.08z" clip-rule="evenodd" fill="#336315" fill-rule="evenodd"/>
	<path d="m30.92 44.08c0.106-0.054 0.24-0.014 0.4 0.12 0.159 0.16 0.172 0.279 0.039 0.359-0.16 0.134-0.399 0.107-0.72-0.08-0.292-0.16-0.2-0.292 0.281-0.399z" clip-rule="evenodd" fill="#70A837" fill-rule="evenodd"/>
	<path d="m41.999 44.08c0.293 0 0.467 0.093 0.521 0.28 0.026 0.106-0.106 0.093-0.399-0.041-0.295-0.132-0.335-0.213-0.122-0.239z" clip-rule="evenodd" fill="#91BA4E" fill-rule="evenodd"/>
	<path d="m36.679 45c0.134-0.08 0.308-0.054 0.521 0.08 0.16 0.106 0.24 0.213 0.24 0.319 0 0.107-0.08 0.146-0.24 0.12-0.134 0-0.267-0.04-0.399-0.12-0.16-0.106-0.254-0.173-0.28-0.199-0.029-0.054 0.025-0.12 0.158-0.2z" clip-rule="evenodd" fill="#91BA4E" fill-rule="evenodd"/>
	<path d="m35.8 42.52c0.16-0.026 0.293-0.013 0.399 0.04 0.107 0.054 0.134 0.12 0.08 0.2s-0.214 0.066-0.479-0.04c-0.267-0.107-0.267-0.174 0-0.2z" clip-rule="evenodd" fill="#91BA4E" fill-rule="evenodd"/>
	<path d="m35.12 48.84c0.159 0 0.306 0.093 0.439 0.279 0.16 0.188 0.174 0.294 0.04 0.32-0.134 0.054-0.308-0.026-0.521-0.24-0.185-0.213-0.172-0.333 0.042-0.359z" clip-rule="evenodd" fill="#70A837" fill-rule="evenodd"/>
	<path d="m37.6 51.279c0.106 0.027 0.173 0.134 0.2 0.32 0 0.187-0.054 0.28-0.16 0.28h-0.2c-0.08-0.106-0.133-0.227-0.16-0.36-0.027-0.212 0.079-0.292 0.32-0.24z" clip-rule="evenodd" fill="#70A837" fill-rule="evenodd"/>
	<path d="m31.16 50.08c0.293 0.239 0.373 0.346 0.239 0.319-0.106 0-0.239-0.08-0.399-0.239-0.16-0.134-0.107-0.16 0.16-0.08z" clip-rule="evenodd" fill="#70A837" fill-rule="evenodd"/>
	<path d="m26.8 47.16c0.026-0.107 0.106-0.094 0.239 0.039 0.134 0.134 0.2 0.268 0.2 0.4 0 0.187-0.093 0.24-0.279 0.16-0.16-0.079-0.214-0.28-0.16-0.599z" clip-rule="evenodd" fill="#70A837" fill-rule="evenodd"/>
	<path d="m32.6 41.96c0.026 0.08-0.093 0.08-0.36 0-0.267-0.054-0.347-0.106-0.239-0.16 0.106-0.054 0.227-0.054 0.359 0 0.132 0.026 0.213 0.08 0.24 0.16z" clip-rule="evenodd" fill="#70A837" fill-rule="evenodd"/>
	<path d="m23.56 42.52c-0.027-0.159 0.094-0.187 0.36-0.08 0.293 0.106 0.414 0.214 0.36 0.32-0.054 0.134-0.173 0.173-0.36 0.12-0.214-0.054-0.334-0.174-0.36-0.36z" clip-rule="evenodd" fill="#699E33" fill-rule="evenodd"/>
	<path d="m21.919 45.28c0.16-0.027 0.307 0.039 0.44 0.199 0.133 0.188 0.106 0.28-0.08 0.28s-0.36-0.08-0.52-0.24c-0.133-0.132-0.079-0.212 0.16-0.239z" clip-rule="evenodd" fill="#699E33" fill-rule="evenodd"/>
	<path d="m20.64 42.8c0.187-0.054 0.333-0.066 0.44-0.04 0.133 0.054 0.146 0.12 0.04 0.2-0.08 0.08-0.24 0.094-0.48 0.04-0.24-0.08-0.24-0.146 0-0.2z" clip-rule="evenodd" fill="#699E33" fill-rule="evenodd"/>
	<path d="m18.32 40.319c0.453 0.134 0.573 0.227 0.36 0.28-0.16 0.054-0.32 0.026-0.48-0.08-0.134-0.08-0.094-0.146 0.12-0.2z" clip-rule="evenodd" fill="#699E33" fill-rule="evenodd"/>
	<path d="m15.4 42.72c0.4 0.213 0.48 0.347 0.24 0.4-0.187 0.026-0.347-0.027-0.479-0.16-0.108-0.134-0.028-0.214 0.239-0.24z" clip-rule="evenodd" fill="#699E33" fill-rule="evenodd"/>
	<path d="m19.88 46.399c0.106-0.026 0.227 0.026 0.36 0.16 0.133 0.106 0.146 0.173 0.04 0.2-0.16 0.026-0.32-0.014-0.48-0.12-0.16-0.133-0.133-0.213 0.08-0.24z" clip-rule="evenodd" fill="#699E33" fill-rule="evenodd"/>
	<path d="m16.08 45.479c0.187-0.026 0.346 0.014 0.48 0.12 0.133 0.106 0.12 0.174-0.041 0.2-0.187 0.054-0.373 0.026-0.56-0.08-0.186-0.079-0.146-0.159 0.121-0.24z" clip-rule="evenodd" fill="#699E33" fill-rule="evenodd"/>
	<path d="m11.439 45.04c0.134-0.027 0.227 0.026 0.28 0.16 0.054 0.106-0.013 0.173-0.2 0.199-0.187 0.054-0.307 0.014-0.359-0.119-0.054-0.107 0.04-0.187 0.279-0.24z" clip-rule="evenodd" fill="#699E33" fill-rule="evenodd"/>
	<path d="m9.48 44.08c0.16-0.026 0.28 0 0.36 0.08 0.08 0.079 0.053 0.146-0.08 0.2-0.134 0.053-0.28 0.026-0.44-0.08-0.16-0.107-0.107-0.174 0.16-0.2z" clip-rule="evenodd" fill="#699E33" fill-rule="evenodd"/>
	<path d="m9.76 41.72c0.24 0.32 0.266 0.48 0.08 0.48-0.187-0.027-0.307-0.107-0.36-0.24-0.054-0.134 0.04-0.214 0.28-0.24z" clip-rule="evenodd" fill="#699E33" fill-rule="evenodd"/>
		<use transform="matrix(.8 0 0 -.8 7.3999 40.9)" x="-0.008" y="-14.707" width="49.258" height="14.707" enable-background="new" opacity=".1211" xlink:href="#i"/>
		<use transform="matrix(.8 0 0 -.8 7.3999 40.7)" x="-0.008" y="-14.96" width="49.408" height="14.96" enable-background="new" opacity=".1289" xlink:href="#h"/>
		<use transform="matrix(.8 0 0 -.8 11.95 41.3)" x="0.3" y="-6.457" width="36.853" height="6.495" enable-background="new" opacity=".1406" xlink:href="#g"/>
</svg>
