<?xml version="1.0" encoding="utf-8"?>
<!-- Generator: Adobe Illustrator 23.0.1, SVG Export Plug-In . SVG Version: 6.00 Build 0)  -->
<svg version="1.1" id="Layer_1" xmlns="http://www.w3.org/2000/svg" xmlns:xlink="http://www.w3.org/1999/xlink" x="0px" y="0px"
	 viewBox="0 0 50 50" style="enable-background:new 0 0 50 50;" xml:space="preserve">
<style type="text/css">
	.st0{fill:url(#SVGID_1_);}
	.st1{fill:#020101;}
	.st2{fill:#FEFEFE;}
</style>
<g>
	<linearGradient id="SVGID_1_" gradientUnits="userSpaceOnUse" x1="6.5785" y1="25.0027" x2="42.0235" y2="25.0027">
		<stop  offset="0" style="stop-color:#D8FF55"/>
		<stop  offset="9.608457e-02" style="stop-color:#CFFC52"/>
		<stop  offset="0.256" style="stop-color:#B5F54B"/>
		<stop  offset="0.4599" style="stop-color:#8CE83F"/>
		<stop  offset="0.7" style="stop-color:#52D72F"/>
		<stop  offset="0.9677" style="stop-color:#09C21A"/>
		<stop  offset="1" style="stop-color:#00BF17"/>
	</linearGradient>
	<path class="st0" d="M11.8,41.7c0,0,0-0.1,0-0.1c0.6-1.2,1.3-2.4,2.1-3.5c0.7-1,1.4-2,2.1-3c0,0,0-0.1,0.1-0.1c0,0,0,0,0,0
		c0,0-0.1,0-0.1,0.1c-0.7,0.6-1.4,1.2-2.1,1.8c-1.6,1.3-3.2,2.6-4.8,3.8c-0.6,0.5-1.3,0.9-2,1.3C7,42,7,42,7,42
		c0.3-0.2,0.5-0.5,0.8-0.7c1.2-1.1,2.3-2.3,3.3-3.6c0.7-0.8,1.3-1.6,1.9-2.5c0,0,0-0.1,0.1-0.1c0,0,0,0,0,0c0,0,0,0,0,0c0,0,0,0,0,0
		c0,0,0,0,0,0c-0.1,0-0.1,0.1-0.2,0.1c-1,0.7-2.1,1.4-3.2,1.9c-0.7,0.3-1.5,0.6-2.2,0.8c-0.3,0.1-0.6,0.1-0.8,0.1
		c0.3-0.1,0.5-0.2,0.8-0.4c1.4-0.7,2.7-1.5,3.8-2.6c1.1-1,2-2.1,2.9-3.3c0.4-0.6,0.8-1.2,1.3-1.8c0.4-0.6,0.9-1.1,1.5-1.6
		c0.7-0.6,1.4-1.2,2.1-1.7c0.5-0.3,1-0.6,1.6-0.8c0,0,0.1,0,0.1,0c0,0-0.1-0.1-0.1-0.1c-0.3-0.3-0.7-0.7-1-1c0,0-0.1-0.1,0-0.1
		c0.4-0.9,0.8-1.9,1.2-2.8c0,0,0,0,0,0c0,0,0.1,0.1,0.1,0.1c0,0,0,0,0,0c0.1-0.2,0.3-0.5,0.4-0.7c0,0,0-0.1,0-0.1
		c-0.1-0.2-0.3-0.3-0.5-0.3c-0.5,0-0.9,0.2-1.3,0.4c-0.9,0.5-1.7,1-2.5,1.6c-1.1,0.8-2.1,1.7-3.1,2.6c0,0-0.1,0.1-0.1,0.1
		c-0.1-0.1-0.1-0.1-0.2-0.1c-0.1,0-0.1-0.1-0.2-0.2c0.3-0.4,0.5-0.8,0.8-1.2c0.6-0.9,1.3-1.8,2-2.7c0.8-1,1.7-1.9,2.8-2.7
		c0.6-0.4,1.2-0.7,1.8-1c0.4-0.1,0.8-0.2,1.3-0.2c0.4,0,0.7,0.1,1.1,0.4c0,0,0,0,0,0c0.1-0.2,0.3-0.4,0.4-0.6c1.1-1.5,2.3-2.8,3.6-4
		c1.8-1.6,3.8-2.9,6-3.9c1-0.4,2-0.8,3-1c0.2,0,0.3-0.1,0.5-0.2c0.2-0.1,0.5-0.1,0.7-0.1c0.3,0,0.5-0.1,0.8-0.1
		c0.4,0,0.7-0.1,1.1-0.1C39.8,8,40.2,8,40.7,8c0.4,0,0.7,0,1.1,0c0,0,0,0,0.1,0c0.1,0,0.1,0.1,0.2,0.1c0,0.1,0,0.2,0,0.3
		c0,0.4,0,0.8,0,1.2c0,0,0,0,0,0.1c0,0.4,0,0.8-0.1,1.1c-0.1,0.5-0.1,0.9-0.2,1.4c-0.2,1.1-0.5,2.2-0.9,3.2
		c-0.1,0.3-0.2,0.5-0.3,0.8c0,0,0,0.1,0,0.1c-0.2,0.3-0.4,0.7-0.5,1.1c-0.7,1.5-1.6,2.9-2.6,4.1c-0.8,1-1.7,2-2.7,2.9
		c-0.9,0.8-1.9,1.6-3,2.3c0,0,0,0-0.1,0c0.3,0.4,0.4,0.9,0.4,1.4c0,0.4-0.1,0.9-0.3,1.3c-0.3,0.6-0.6,1.2-1,1.8
		c-0.6,0.8-1.4,1.6-2.2,2.2c-1.3,1.1-2.8,2.1-4.3,3.1c-0.1-0.1-0.2-0.2-0.3-0.4c0.2-0.2,0.3-0.4,0.5-0.6c0.9-1,1.8-2,2.6-3.1
		c0.6-0.7,1.1-1.5,1.5-2.3c0.1-0.3,0.2-0.5,0.3-0.8c0-0.1,0-0.3,0-0.4c0-0.2-0.1-0.3-0.3-0.3c0,0-0.1,0-0.1,0
		c-0.9,0.5-1.8,0.9-2.7,1.3c-0.3,0.1-0.5,0.2-0.8,0.3c-0.1,0-0.1,0-0.2,0c-0.3-0.3-0.7-0.7-1.1-1c0,0,0,0,0,0c0,0.1,0,0.1,0,0.2
		c-0.1,0.2-0.2,0.4-0.3,0.6c-0.5,0.9-1.1,1.9-1.8,2.7c-0.7,0.9-1.5,1.6-2.3,2.3c-0.7,0.5-1.3,1.1-2,1.6
		C15.2,38.1,13.4,39.8,11.8,41.7L11.8,41.7z M21,27.8c0.2-0.2,0.5-0.5,0.7-0.7c-0.2-0.2-0.4-0.4-0.6-0.6c0,0-0.1,0-0.1,0
		c-0.2,0.1-0.4,0.3-0.6,0.5c-0.4,0.5-0.8,1-1.2,1.5c-0.3,0.3-0.6,0.7-0.9,0.9c0,0,0,0-0.1,0.1c0,0,0,0,0,0c0,0,0.1,0,0.1,0
		c0.1-0.1,0.3-0.1,0.4-0.2c0.6-0.3,1-0.7,1.5-1.1c0.2-0.2,0.5-0.4,0.7-0.6C21,27.7,21,27.7,21,27.8C21,27.8,21,27.8,21,27.8
		C21,27.8,21,27.8,21,27.8z M34.3,9.7C34.3,9.7,34.4,9.7,34.3,9.7c0.2,0,0.3,0,0.4,0c0.6-0.1,1.3-0.1,1.9-0.2
		c0.7-0.1,1.4-0.2,2.1-0.3c0.7-0.1,1.4-0.2,2.1-0.4c0.2,0,0.3-0.1,0.5-0.2c0,0,0.1-0.1,0.1-0.1c0,0-0.1-0.1-0.1-0.1
		c-0.2,0-0.3-0.1-0.5-0.1c-1.2,0-2.5,0.1-3.7,0.4C36.2,9,35.2,9.3,34.3,9.7L34.3,9.7C34.3,9.7,34.3,9.7,34.3,9.7z M23.8,25.1
		c1.1-1.1,2.2-2.1,3.2-3.2c0.3,0.3,0.6,0.5,0.9,0.8c-1.1,1.1-2.2,2.1-3.2,3.2c0.2,0.3,0.5,0.5,0.7,0.8c0.6,0.6,1.2,1.2,1.8,1.8
		c0,0,0,0,0.1,0.1c0,0,0.1,0.1,0.1,0c0.2-0.1,0.4-0.2,0.6-0.3c2.3-1.2,4.4-2.6,6.4-4.3c1.1-1,2.2-2.1,3.1-3.3
		c0.9-1.1,1.6-2.4,2.2-3.7c0-0.1,0-0.1,0-0.2c-2.1-2.2-4.3-4.4-6.4-6.6c-0.1-0.1-0.1-0.1-0.2,0c-1.9,0.9-3.7,2-5.3,3.4
		c-1.4,1.2-2.6,2.5-3.7,4c-1,1.4-1.9,2.8-2.7,4.3c-0.1,0.2-0.2,0.3-0.3,0.5C22,23.3,22.9,24.2,23.8,25.1z M22.1,26.7
		c0.4-0.4,0.9-0.9,1.3-1.3c-0.8-0.9-1.7-1.7-2.5-2.6c-0.3,0.6-0.5,1.2-0.8,1.8c0,0.1,0,0.1,0,0.1c0.3,0.3,0.6,0.6,0.9,0.9
		C21.4,26,21.7,26.4,22.1,26.7z M24,28.6c0.5-0.4,0.9-0.9,1.2-1.4c-0.3-0.3-0.6-0.6-1-0.9c-0.4,0.4-0.9,0.9-1.3,1.3
		C23.3,27.9,23.6,28.3,24,28.6z"/>
	<path class="st1" d="M11.8,41.7C11.8,41.7,11.8,41.7,11.8,41.7C11.8,41.7,11.8,41.7,11.8,41.7C11.8,41.7,11.8,41.7,11.8,41.7z"/>
	<path class="st2" d="M23.8,25.1c-0.9-0.9-1.8-1.8-2.6-2.7c0.1-0.2,0.2-0.3,0.3-0.5c0.8-1.5,1.7-2.9,2.7-4.3c1.1-1.5,2.3-2.8,3.7-4
		c1.6-1.4,3.3-2.5,5.3-3.4c0.1,0,0.1,0,0.2,0c2.1,2.2,4.3,4.4,6.4,6.6c0.1,0.1,0.1,0.1,0,0.2c-0.6,1.3-1.4,2.5-2.2,3.7
		c-0.9,1.2-2,2.3-3.1,3.3c-1.9,1.7-4.1,3.1-6.4,4.3c-0.2,0.1-0.4,0.2-0.6,0.3c-0.1,0-0.1,0-0.1,0c0,0,0,0-0.1-0.1
		c-0.7-0.5-1.2-1.2-1.8-1.8c-0.2-0.3-0.5-0.5-0.7-0.8c1.1-1.1,2.2-2.1,3.2-3.2c-0.3-0.3-0.6-0.5-0.9-0.8
		C25.9,22.9,24.9,24,23.8,25.1z"/>
	<path class="st2" d="M22.1,26.7c-0.3-0.3-0.7-0.7-1-1c-0.3-0.3-0.6-0.6-0.9-0.9c0,0,0-0.1,0-0.1c0.3-0.6,0.5-1.2,0.8-1.8
		c0.8,0.9,1.7,1.7,2.5,2.6C23,25.9,22.5,26.3,22.1,26.7z"/>
	<path class="st2" d="M34.3,9.7c0.9-0.3,1.9-0.6,2.8-0.8c1.2-0.3,2.4-0.4,3.7-0.4c0.2,0,0.3,0,0.5,0.1c0,0,0.1,0.1,0.1,0.1
		c0,0-0.1,0.1-0.1,0.1c-0.2,0.1-0.3,0.1-0.5,0.2c-0.7,0.1-1.4,0.3-2.1,0.4c-0.7,0.1-1.4,0.2-2.1,0.3c-0.6,0.1-1.3,0.1-1.9,0.2
		C34.6,9.7,34.5,9.7,34.3,9.7C34.4,9.7,34.3,9.7,34.3,9.7C34.3,9.7,34.3,9.7,34.3,9.7z"/>
	<path class="st2" d="M24,28.6c-0.4-0.3-0.7-0.7-1-1c0.4-0.4,0.9-0.9,1.3-1.3c0.3,0.3,0.6,0.6,1,0.9C24.8,27.8,24.4,28.2,24,28.6z"
		/>
	<path class="st2" d="M21,27.8c0,0,0-0.1,0-0.1c-0.2,0.2-0.5,0.4-0.7,0.6c-0.5,0.4-0.9,0.8-1.5,1.1c-0.1,0.1-0.3,0.1-0.4,0.2
		c0,0-0.1,0-0.1,0c0,0,0,0,0,0c0,0,0,0,0.1-0.1c0.3-0.3,0.6-0.6,0.9-0.9c0.4-0.5,0.8-1,1.2-1.5c0.2-0.2,0.4-0.4,0.6-0.5
		c0,0,0.1,0,0.1,0c0.2,0.2,0.4,0.4,0.6,0.6C21.5,27.3,21.2,27.5,21,27.8C21,27.8,21,27.8,21,27.8z"/>
	<polygon class="st2" points="34.3,9.7 34.3,9.7 34.3,9.7 	"/>
	<path class="st2" d="M21,27.8C21,27.8,21,27.8,21,27.8C21,27.8,21,27.8,21,27.8C21,27.8,21,27.8,21,27.8z"/>
	<path class="st2" d="M13.1,35.2C13.1,35.2,13.1,35.2,13.1,35.2C13.1,35.2,13.1,35.2,13.1,35.2C13.1,35.2,13.1,35.2,13.1,35.2z"/>
	<path class="st2" d="M13.1,35.2C13.1,35.2,13.1,35.2,13.1,35.2C13.1,35.2,13.1,35.2,13.1,35.2C13.1,35.2,13.1,35.2,13.1,35.2
		C13.1,35.2,13.1,35.2,13.1,35.2z"/>
</g>
</svg>
