<?xml version="1.0" standalone="no"?><svg xmlns="http://www.w3.org/2000/svg" viewBox="0 0 1440 320"><path fill="#273036" fill-opacity="1" d="M0,96L16,117.3C32,139,64,181,96,181.3C128,181,160,139,192,106.7C224,75,256,53,288,42.7C320,32,352,32,384,32C416,32,448,32,480,37.3C512,43,544,53,576,90.7C608,128,640,192,672,218.7C704,245,736,235,768,224C800,213,832,203,864,208C896,213,928,235,960,208C992,181,1024,107,1056,69.3C1088,32,1120,32,1152,53.3C1184,75,1216,117,1248,133.3C1280,149,1312,139,1344,154.7C1376,171,1408,213,1424,234.7L1440,256L1440,320L1424,320C1408,320,1376,320,1344,320C1312,320,1280,320,1248,320C1216,320,1184,320,1152,320C1120,320,1088,320,1056,320C1024,320,992,320,960,320C928,320,896,320,864,320C832,320,800,320,768,320C736,320,704,320,672,320C640,320,608,320,576,320C544,320,512,320,480,320C448,320,416,320,384,320C352,320,320,320,288,320C256,320,224,320,192,320C160,320,128,320,96,320C64,320,32,320,16,320L0,320Z"></path></svg>