<?xml version="1.0" standalone="no"?><svg xmlns="http://www.w3.org/2000/svg" viewBox="0 0 1440 320"><path fill="#273036" fill-opacity="2" d="M0,224L40,213.3C80,203,160,181,240,170.7C320,160,400,160,480,138.7C560,117,640,75,720,58.7C800,43,880,53,960,74.7C1040,96,1120,128,1200,149.3C1280,171,1360,181,1400,186.7L1440,192L1440,320L1400,320C1360,320,1280,320,1200,320C1120,320,1040,320,960,320C880,320,800,320,720,320C640,320,560,320,480,320C400,320,320,320,240,320C160,320,80,320,40,320L0,320Z"></path></svg>