<?xml version="1.0" standalone="no"?><svg xmlns="http://www.w3.org/2000/svg" viewBox="0 0 1440 320"><path fill="#273036" fill-opacity="1" d="M0,128L21.8,122.7C43.6,117,87,107,131,112C174.5,117,218,139,262,165.3C305.5,192,349,224,393,208C436.4,192,480,128,524,122.7C567.3,117,611,171,655,186.7C698.2,203,742,181,785,154.7C829.1,128,873,96,916,80C960,64,1004,64,1047,101.3C1090.9,139,1135,213,1178,234.7C1221.8,256,1265,224,1309,181.3C1352.7,139,1396,85,1418,58.7L1440,32L1440,320L1418.2,320C1396.4,320,1353,320,1309,320C1265.5,320,1222,320,1178,320C1134.5,320,1091,320,1047,320C1003.6,320,960,320,916,320C872.7,320,829,320,785,320C741.8,320,698,320,655,320C610.9,320,567,320,524,320C480,320,436,320,393,320C349.1,320,305,320,262,320C218.2,320,175,320,131,320C87.3,320,44,320,22,320L0,320Z"></path></svg>