<?xml version="1.0" standalone="no"?><svg xmlns="http://www.w3.org/2000/svg" viewBox="0 0 1440 320"><path fill="#273036" fill-opacity="2" d="M0,32L8,53.3C16,75,32,117,48,154.7C64,192,80,224,96,208C112,192,128,128,144,138.7C160,149,176,235,192,245.3C208,256,224,192,240,181.3C256,171,272,213,288,224C304,235,320,213,336,181.3C352,149,368,107,384,85.3C400,64,416,64,432,90.7C448,117,464,171,480,208C496,245,512,267,528,277.3C544,288,560,288,576,272C592,256,608,224,624,176C640,128,656,64,672,58.7C688,53,704,107,720,122.7C736,139,752,117,768,90.7C784,64,800,32,816,48C832,64,848,128,864,138.7C880,149,896,107,912,90.7C928,75,944,85,960,122.7C976,160,992,224,1008,256C1024,288,1040,288,1056,250.7C1072,213,1088,139,1104,122.7C1120,107,1136,149,1152,192C1168,235,1184,277,1200,298.7C1216,320,1232,320,1248,304C1264,288,1280,256,1296,218.7C1312,181,1328,139,1344,106.7C1360,75,1376,53,1392,85.3C1408,117,1424,203,1432,245.3L1440,288L1440,320L1432,320C1424,320,1408,320,1392,320C1376,320,1360,320,1344,320C1328,320,1312,320,1296,320C1280,320,1264,320,1248,320C1232,320,1216,320,1200,320C1184,320,1168,320,1152,320C1136,320,1120,320,1104,320C1088,320,1072,320,1056,320C1040,320,1024,320,1008,320C992,320,976,320,960,320C944,320,928,320,912,320C896,320,880,320,864,320C848,320,832,320,816,320C800,320,784,320,768,320C752,320,736,320,720,320C704,320,688,320,672,320C656,320,640,320,624,320C608,320,592,320,576,320C560,320,544,320,528,320C512,320,496,320,480,320C464,320,448,320,432,320C416,320,400,320,384,320C368,320,352,320,336,320C320,320,304,320,288,320C272,320,256,320,240,320C224,320,208,320,192,320C176,320,160,320,144,320C128,320,112,320,96,320C80,320,64,320,48,320C32,320,16,320,8,320L0,320Z"></path></svg>